{"title":"The.Lost.Bladesman.2011.DvDRip.x264.Feel-Free","uid":6416421,"size":1242913694,"categoryP":"video","categoryS":"movies","magnet":"?xt=urn:btih:689dfc98d958f1dfa5f4e49fd0ac98e6b1186d95&amp;dn=The.Lost.Bladesman.2011.DvDRip.x264.Feel-Free&amp;tr=udp%3A%2F%2Ftracker.openbittorrent.com%3A80&amp;tr=udp%3A%2F%2Fopen.demonii.com%3A1337&amp;tr=udp%3A%2F%2Ftracker.coppersurfer.tk%3A6969&amp;tr=udp%3A%2F%2Fexodus.desync.com%3A6969","seeders":1,"leechers":1,"uploader":".BONE.","files":11,"time":1306178036,"description":"\nGenre: Action | Biography | Drama\n Language:Mandarin\n  &lt;a href=&quot;\nhttp://www.imdb.com/title/tt1648093/&quot; rel=&quot;nofollow&quot; target=&quot;_NEW&quot;&gt;\nhttp://www.imdb.com/title/tt1648093/&lt;/a&gt;\n\n Source:DVD\n Subtitles:Romana/English\n \n\nFormat : MPEG-4\n Format profile : Base Media\n Codec ID : isom\n File size : 1.16 GiB\n Duration : 1h 44mn\n Overall bit rate : 1 578 Kbps\n \nVideo\n ID : 1\n Format : AVC\n Format/Info : Advanced Video Codec\n Format profile : &lt;a class=&quot;__cf_email__&quot; href=&quot;/cdn-cgi/l/email-protection&quot; data-cfemail=&quot;632b0a040b232f574d52&quot;&gt;[email&amp;#160;protected]&lt;/a&gt;&lt;script cf-hash='f9e31' type=&quot;text/javascript&quot;&gt;\n/* &lt;![CDATA[ */!function(){try{var t=&quot;currentScript&quot;in document?document.currentScript:function(){for(var t=document.getElementsByTagName(&quot;script&quot;),e=t.length;e--;)if(t[e].getAttribute(&quot;cf-hash&quot;))return t[e]}();if(t&amp;&amp;t.previousSibling){var e,r,n,i,c=t.previousSibling,a=c.getAttribute(&quot;data-cfemail&quot;);if(a){for(e=&quot;&quot;,r=parseInt(a.substr(0,2),16),n=2;a.length-n;n+=2)i=parseInt(a.substr(n,2),16)^r,e+=String.fromCharCode(i);e=document.createTextNode(e),c.parentNode.replaceChild(e,c)}}}catch(u){}}();/* ]]&gt; */&lt;/script&gt;\n Format settings, CABAC : Yes\n Format settings, ReFrames : 3 frames\n Codec ID : avc1\n Codec ID/Info : Advanced Video Coding\n Duration : 1h 44mn\n Bit rate mode : Variable\n Bit rate : 1 362 Kbps\n Maximum bit rate : 9 793 Kbps\n Width : 720 pixels\n Height : 304 pixels\n Display aspect ratio : 2.35:1\n Frame rate mode : Constant\n Frame rate : 29.970 fps\n Color space : YUV\n Chroma subsampling : 4:2:0\n Bit depth : 8 bits\n Scan type : Progressive\n Bits/(Pixel*Frame) : 0.208\n Stream size : 1 013 MiB (86%)\n Writing library : x264\n \nAudio\n ID : 2\n Format : AAC\n Format/Info : Advanced Audio Codec\n Format version : Version 4\n Format profile : LC\n Format settings, SBR : No\n Codec ID : 40\n Duration : 1h 44mn\n Bit rate mode : Variable\n Bit rate : 224 Kbps\n Maximum bit rate : 285 Kbps\n Channel(s) : 2 channels\n Channel positions : Front: L R\n Sampling rate : 48.0 KHz\n Stream size : 168 MiB (14%)\n \nPlot:\n A tyrant forces the greatest warrior in the land to battle his greatest friend by holding the woman they both love hostage.\n &lt;a href=&quot;\nhttp://www.pix2links.com/images/56259289912607618977.png7&quot; rel=&quot;nofollow&quot; target=&quot;_NEW&quot;&gt;\nhttp://www.pix2links.com/images/56259289912607618977.png7&lt;/a&gt;\n &lt;a href=&quot;\nhttp://www.pix2links.com/images/31304267171550859861.png&quot; rel=&quot;nofollow&quot; target=&quot;_NEW&quot;&gt;\nhttp://www.pix2links.com/images/31304267171550859861.png&lt;/a&gt;\n &lt;a href=&quot;\nhttp://www.pix2links.com/images/88275939673168129053.png&quot; rel=&quot;nofollow&quot; target=&quot;_NEW&quot;&gt;\nhttp://www.pix2links.com/images/88275939673168129053.png&lt;/a&gt;\n &lt;a href=&quot;\nhttp://www.pix2links.com/images/64208706465362085906.png&quot; rel=&quot;nofollow&quot; target=&quot;_NEW&quot;&gt;\nhttp://www.pix2links.com/images/64208706465362085906.png&lt;/a&gt;\n \n","torrent":{"xt":"urn:btih:689dfc98d958f1dfa5f4e49fd0ac98e6b1186d95","amp;dn":"The.Lost.Bladesman.2011.DvDRip.x264.Feel-Free","amp;tr":["udp%3A%2F%2Ftracker.openbittorrent.com%3A80","udp%3A%2F%2Fopen.demonii.com%3A1337","udp%3A%2F%2Ftracker.coppersurfer.tk%3A6969","udp%3A%2F%2Fexodus.desync.com%3A6969"],"infoHash":"689dfc98d958f1dfa5f4e49fd0ac98e6b1186d95","infoHashBuffer":{"type":"Buffer","data":[104,157,252,152,217,88,241,223,165,244,228,159,208,172,152,230,177,24,109,149]},"announce":[],"urlList":[]}}